<svg xmlns="http://www.w3.org/2000/svg" viewBox="0 0 720 500" role="img" aria-labelledby="title desc">
  <title id="title">Component Task healthcare team</title>
  <desc id="desc">A patient lying in Fowler's position in a hospital bed with a doctor and two nurses behind her.</desc>
  <rect width="720" height="500" rx="28" fill="#e8f2ff"/>
  <ellipse cx="360" cy="438" rx="292" ry="28" fill="#c8dcf2"/>
  <!-- bed -->
  <path d="M92 326h445v48H92z" fill="#fff" stroke="#9ab7d2" stroke-width="5"/>
  <path d="M102 272h335l68 54H102z" fill="#dbe9f5" stroke="#9ab7d2" stroke-width="5"/>
  <path d="M102 272v102M515 326v48M537 326v48M92 374v24M537 374v24" fill="none" stroke="#7896ad" stroke-width="8" stroke-linecap="round"/>
  <path d="M120 398h24M500 398h24" stroke="#7896ad" stroke-width="8" stroke-linecap="round"/>
  <!-- patient -->
  <circle cx="218" cy="243" r="34" fill="#8d5a3b"/>
  <path d="M189 237c8-31 57-40 68-4-15-8-41-10-68 4z" fill="#2f211b"/>
  <path d="M214 277c-20 4-35 17-40 35l-12 42h205l-27-60c-10-23-30-28-53-23z" fill="#f7fbff" stroke="#8eb0c9" stroke-width="5"/>
  <path d="M198 314c42 15 93 15 139 0l25 40H186z" fill="#55a7d9"/>
  <path d="M257 286c20 13 39 20 62 22" fill="none" stroke="#8d5a3b" stroke-width="15" stroke-linecap="round"/>
  <!-- doctor -->
  <circle cx="426" cy="137" r="34" fill="#8d5a3b"/>
  <path d="M397 129c8-33 56-43 67-5-15-12-43-11-67 5z" fill="#2b2522"/>
  <path d="M394 174c11-17 24-25 40-25s31 9 43 25l20 100H374z" fill="#fff" stroke="#7b98ae" stroke-width="5"/>
  <path d="M415 191h39v53h-39z" fill="#e8f2ff"/>
  <path d="M410 176v54M459 176v54" stroke="#7b98ae" stroke-width="4"/>
  <path d="M430 225c0 17 12 30 27 38" fill="none" stroke="#8d5a3b" stroke-width="9" stroke-linecap="round"/>
  <path d="M430 194c-14 19-17 43-14 61" fill="none" stroke="#8d5a3b" stroke-width="8" stroke-linecap="round"/>
  <circle cx="429" cy="194" r="7" fill="#fff" stroke="#4d687c" stroke-width="3"/>
  <!-- nurse 1 -->
  <circle cx="552" cy="160" r="31" fill="#9b6645"/>
  <path d="M521 157c3-35 61-43 63 0-18-11-41-10-63 0z" fill="#252525"/>
  <path d="M520 193c10-16 21-22 33-22s26 8 35 22l18 102H501z" fill="#f5fff9" stroke="#72a58b" stroke-width="5"/>
  <path d="M553 208v63" stroke="#72a58b" stroke-width="4"/>
  <path d="M536 214c-9 21-10 43-4 64" fill="none" stroke="#9b6645" stroke-width="8" stroke-linecap="round"/>
  <path d="M579 216c10 17 16 35 17 53" fill="none" stroke="#9b6645" stroke-width="8" stroke-linecap="round"/>
  <circle cx="552" cy="209" r="7" fill="#fff" stroke="#4d687c" stroke-width="3"/>
  <!-- nurse 2 -->
  <circle cx="618" cy="224" r="27" fill="#6f432f"/>
  <path d="M592 220c2-30 52-38 56-2-15-9-37-9-56 2z" fill="#1e1b1a"/>
  <path d="M592 252c8-14 18-20 29-20s22 6 29 20l12 77H580z" fill="#fff" stroke="#72a58b" stroke-width="5"/>
  <path d="M608 260v47M630 260v47" stroke="#72a58b" stroke-width="4"/>
  <!-- clinical accents -->
  <rect x="58" y="120" width="88" height="58" rx="12" fill="#fff" stroke="#b7cfe4" stroke-width="4"/>
  <path d="M79 149h46M102 126v46" stroke="#1976d2" stroke-width="6" stroke-linecap="round"/>
  <circle cx="628" cy="92" r="24" fill="#fff" stroke="#b7cfe4" stroke-width="4"/>
  <path d="M616 92h24M628 80v24" stroke="#008a4b" stroke-width="5" stroke-linecap="round"/>
</svg>